<svg xmlns="http://www.w3.org/2000/svg" xmlns:xlink="http://www.w3.org/1999/xlink" width="500" zoomAndPan="magnify" viewBox="0 0 375 374.999991" height="500" preserveAspectRatio="xMidYMid meet" version="1.0"><path fill="#231f20" d="M 334.042969 59.796875 L 75.292969 59.796875 C 63.40625 59.796875 51.507812 59.589844 39.625 59.796875 L 39.128906 59.796875 C 38.222656 59.808594 37.328125 59.910156 36.441406 60.09375 C 35.558594 60.28125 34.699219 60.550781 33.863281 60.902344 C 33.03125 61.253906 32.238281 61.683594 31.488281 62.1875 C 30.734375 62.691406 30.039062 63.265625 29.402344 63.90625 C 28.761719 64.542969 28.1875 65.238281 27.683594 65.992188 C 27.175781 66.742188 26.746094 67.53125 26.394531 68.367188 C 26.042969 69.199219 25.773438 70.058594 25.585938 70.945312 C 25.398438 71.832031 25.300781 72.726562 25.289062 73.632812 L 25.289062 127.089844 C 25.300781 127.992188 25.402344 128.890625 25.585938 129.773438 C 25.773438 130.660156 26.042969 131.519531 26.398438 132.351562 C 26.75 133.183594 27.179688 133.976562 27.683594 134.726562 C 28.191406 135.476562 28.761719 136.171875 29.402344 136.8125 C 30.042969 137.453125 30.738281 138.023438 31.488281 138.53125 C 32.238281 139.035156 33.03125 139.464844 33.863281 139.816406 C 34.699219 140.167969 35.558594 140.4375 36.445312 140.625 C 37.328125 140.808594 38.222656 140.910156 39.128906 140.921875 L 88.003906 141.085938 L 166.003906 141.355469 L 184 141.414062 L 170.167969 127.578125 L 170.167969 270.273438 C 170.167969 276.882812 170.023438 283.511719 170.167969 290.128906 L 170.167969 290.417969 C 170.167969 297.652344 176.550781 304.601562 184 304.253906 C 191.453125 303.90625 197.84375 298.175781 197.84375 290.417969 L 197.84375 147.722656 C 197.84375 141.105469 197.984375 134.476562 197.84375 127.867188 C 197.84375 127.769531 197.84375 127.675781 197.84375 127.578125 C 197.828125 126.671875 197.730469 125.777344 197.542969 124.890625 C 197.355469 124.007812 197.085938 123.148438 196.734375 122.3125 C 196.382812 121.480469 195.953125 120.6875 195.449219 119.9375 C 194.941406 119.1875 194.371094 118.492188 193.730469 117.851562 C 193.089844 117.210938 192.394531 116.640625 191.644531 116.132812 C 190.890625 115.628906 190.101562 115.199219 189.265625 114.847656 C 188.433594 114.496094 187.574219 114.226562 186.6875 114.042969 C 185.800781 113.855469 184.90625 113.757812 184 113.742188 L 135.125 113.574219 L 57.125 113.3125 L 39.128906 113.246094 L 52.964844 127.089844 L 52.964844 73.632812 L 39.128906 87.472656 L 297.878906 87.472656 C 309.757812 87.472656 321.664062 87.679688 333.539062 87.472656 C 333.710938 87.472656 333.871094 87.472656 334.042969 87.472656 C 341.277344 87.472656 348.226562 81.089844 347.878906 73.632812 C 347.53125 66.171875 341.808594 59.796875 334.042969 59.796875 Z M 334.042969 59.796875 " fill-opacity="1" fill-rule="nonzero"/><path fill="#231f20" d="M 38.078125 197.195312 L 69.136719 197.011719 L 118.671875 196.714844 L 130.070312 196.648438 L 116.234375 182.808594 L 116.234375 336.410156 C 116.246094 337.316406 116.347656 338.210938 116.53125 339.09375 C 116.71875 339.980469 116.988281 340.839844 117.339844 341.671875 C 117.691406 342.507812 118.121094 343.300781 118.625 344.050781 C 119.128906 344.800781 119.703125 345.496094 120.34375 346.136719 C 120.984375 346.773438 121.679688 347.347656 122.429688 347.851562 C 123.179688 348.359375 123.972656 348.789062 124.804688 349.140625 C 125.636719 349.492188 126.496094 349.761719 127.382812 349.945312 C 128.269531 350.132812 129.164062 350.230469 130.070312 350.242188 L 241.707031 350.242188 C 242.613281 350.230469 243.507812 350.132812 244.390625 349.945312 C 245.277344 349.761719 246.136719 349.492188 246.972656 349.140625 C 247.804688 348.789062 248.597656 348.359375 249.347656 347.851562 C 250.097656 347.347656 250.792969 346.777344 251.433594 346.136719 C 252.074219 345.496094 252.648438 344.800781 253.152344 344.050781 C 253.660156 343.300781 254.085938 342.507812 254.441406 341.675781 C 254.792969 340.839844 255.0625 339.980469 255.25 339.09375 C 255.433594 338.210938 255.535156 337.316406 255.546875 336.410156 L 255.546875 182.886719 L 241.707031 196.71875 L 271.113281 196.585938 L 317.777344 196.367188 L 328.625 196.316406 C 329.53125 196.304688 330.425781 196.203125 331.308594 196.015625 C 332.195312 195.828125 333.054688 195.558594 333.886719 195.207031 C 334.71875 194.855469 335.511719 194.425781 336.261719 193.921875 C 337.011719 193.414062 337.707031 192.84375 338.347656 192.203125 C 338.988281 191.5625 339.558594 190.871094 340.066406 190.117188 C 340.570312 189.367188 341 188.578125 341.351562 187.742188 C 341.703125 186.910156 341.972656 186.050781 342.160156 185.167969 C 342.347656 184.28125 342.445312 183.386719 342.460938 182.480469 L 342.460938 127.429688 C 342.445312 126.523438 342.347656 125.628906 342.160156 124.742188 C 341.976562 123.859375 341.707031 123 341.355469 122.164062 C 341.003906 121.332031 340.574219 120.539062 340.070312 119.789062 C 339.5625 119.039062 338.992188 118.34375 338.351562 117.703125 C 337.710938 117.0625 337.015625 116.492188 336.265625 115.984375 C 335.515625 115.480469 334.722656 115.050781 333.890625 114.699219 C 333.054688 114.347656 332.195312 114.078125 331.3125 113.894531 C 330.425781 113.707031 329.53125 113.609375 328.625 113.59375 L 296.835938 113.695312 L 246.394531 113.851562 L 234.699219 113.886719 C 227.460938 113.886719 220.519531 120.265625 220.859375 127.726562 C 221.199219 135.1875 226.9375 141.589844 234.734375 141.5625 L 266.515625 141.460938 L 316.960938 141.304688 L 328.660156 141.269531 L 314.820312 127.429688 L 314.820312 182.480469 L 328.660156 168.640625 L 299.253906 168.78125 L 252.589844 168.996094 L 241.742188 169.046875 C 240.835938 169.058594 239.941406 169.160156 239.058594 169.34375 C 238.171875 169.53125 237.3125 169.800781 236.480469 170.15625 C 235.644531 170.507812 234.851562 170.9375 234.101562 171.441406 C 233.351562 171.949219 232.65625 172.519531 232.019531 173.160156 C 231.378906 173.800781 230.804688 174.496094 230.300781 175.246094 C 229.796875 175.996094 229.367188 176.789062 229.015625 177.621094 C 228.660156 178.457031 228.394531 179.316406 228.207031 180.199219 C 228.019531 181.085938 227.921875 181.980469 227.90625 182.886719 L 227.90625 336.410156 L 241.742188 322.570312 L 130.070312 322.570312 L 143.910156 336.410156 L 143.910156 182.808594 C 143.898438 181.902344 143.796875 181.007812 143.613281 180.121094 C 143.425781 179.238281 143.15625 178.375 142.804688 177.542969 C 142.453125 176.710938 142.023438 175.917969 141.515625 175.167969 C 141.011719 174.414062 140.4375 173.71875 139.796875 173.082031 C 139.160156 172.441406 138.460938 171.867188 137.710938 171.363281 C 136.960938 170.859375 136.167969 170.429688 135.335938 170.078125 C 134.5 169.726562 133.640625 169.457031 132.753906 169.269531 C 131.867188 169.085938 130.972656 168.988281 130.070312 168.972656 L 99.011719 169.160156 L 49.472656 169.46875 L 38.078125 169.535156 C 30.839844 169.585938 23.898438 175.875 24.238281 183.375 C 24.578125 190.878906 30.320312 197.257812 38.078125 197.210938 Z M 38.078125 197.195312 " fill-opacity="1" fill-rule="nonzero"/></svg>