<svg xmlns="http://www.w3.org/2000/svg" xmlns:xlink="http://www.w3.org/1999/xlink" width="500" zoomAndPan="magnify" viewBox="0 0 375 374.999991" height="500" preserveAspectRatio="xMidYMid meet" version="1.0"><path fill="#38b6ff" d="M 258.933594 195.816406 C 258.402344 195.816406 257.867188 195.640625 257.421875 195.28125 L 244.1875 184.613281 L 231.9375 195.230469 C 231.054688 195.992188 229.757812 196.015625 228.847656 195.28125 L 215.613281 184.613281 L 203.363281 195.230469 C 202.484375 195.992188 201.183594 196.015625 200.273438 195.28125 L 187.039062 184.613281 L 174.792969 195.230469 C 173.910156 195.992188 172.609375 196.015625 171.703125 195.28125 L 158.464844 184.613281 L 146.214844 195.230469 C 145.335938 195.992188 144.035156 196.015625 143.125 195.28125 L 129.890625 184.613281 L 117.644531 195.230469 C 116.640625 196.101562 115.117188 195.992188 114.246094 194.984375 C 113.371094 193.980469 113.480469 192.457031 114.488281 191.585938 L 128.257812 179.652344 C 129.140625 178.890625 130.4375 178.863281 131.347656 179.597656 L 144.585938 190.269531 L 156.832031 179.652344 C 157.714844 178.890625 159.015625 178.863281 159.921875 179.597656 L 173.15625 190.269531 L 185.40625 179.652344 C 186.285156 178.890625 187.585938 178.863281 188.496094 179.597656 L 201.730469 190.269531 L 213.976562 179.652344 C 214.859375 178.890625 216.160156 178.863281 217.070312 179.597656 L 230.304688 190.269531 L 242.554688 179.652344 C 243.4375 178.890625 244.734375 178.863281 245.644531 179.597656 L 260.445312 191.53125 C 261.484375 192.367188 261.644531 193.882812 260.8125 194.921875 C 260.332031 195.511719 259.636719 195.816406 258.933594 195.816406 " fill-opacity="1" fill-rule="nonzero"/></svg>