<svg xmlns="http://www.w3.org/2000/svg" xmlns:xlink="http://www.w3.org/1999/xlink" width="500" zoomAndPan="magnify" viewBox="0 0 375 374.999991" height="500" preserveAspectRatio="xMidYMid meet" version="1.0"><defs><clipPath id="1d79e899fd"><path d="M 112.5 133.90625 L 262.5 133.90625 L 262.5 265.15625 L 112.5 265.15625 Z M 112.5 133.90625 " clip-rule="nonzero"/></clipPath></defs><g clip-path="url(#1d79e899fd)"><path fill="#5e17eb" d="M 191.902344 136.40625 C 191.011719 134.859375 189.367188 133.90625 187.582031 133.90625 C 185.800781 133.90625 184.15625 134.859375 183.265625 136.40625 L 113.453125 257.667969 C 112.5625 259.214844 112.5625 261.121094 113.453125 262.667969 C 114.34375 264.214844 115.988281 265.171875 117.773438 265.171875 L 257.394531 265.171875 C 257.40625 265.171875 257.417969 265.171875 257.425781 265.171875 C 260.183594 265.171875 262.414062 262.929688 262.414062 260.167969 C 262.414062 259.066406 262.058594 258.042969 261.453125 257.214844 Z M 126.410156 255.167969 L 187.582031 148.90625 L 248.757812 255.167969 Z M 126.410156 255.167969 " fill-opacity="1" fill-rule="nonzero"/></g></svg>