<svg xmlns="http://www.w3.org/2000/svg" xmlns:xlink="http://www.w3.org/1999/xlink" width="500" zoomAndPan="magnify" viewBox="0 0 375 374.999991" height="500" preserveAspectRatio="xMidYMid meet" version="1.0"><defs><clipPath id="6dc81673e8"><path d="M 150.171875 150.171875 L 225.171875 150.171875 L 225.171875 225.171875 L 150.171875 225.171875 Z M 150.171875 150.171875 " clip-rule="nonzero"/></clipPath></defs><g clip-path="url(#6dc81673e8)"><path fill="#ff1616" d="M 187.671875 150.171875 C 166.953125 150.171875 150.171875 166.953125 150.171875 187.671875 C 150.171875 208.390625 166.953125 225.171875 187.671875 225.171875 C 208.390625 225.171875 225.171875 208.390625 225.171875 187.671875 C 225.171875 166.953125 208.390625 150.171875 187.671875 150.171875 Z M 187.671875 217.671875 C 171.097656 217.671875 157.671875 204.246094 157.671875 187.671875 C 157.671875 171.097656 171.097656 157.671875 187.671875 157.671875 C 204.246094 157.671875 217.671875 171.097656 217.671875 187.671875 C 217.671875 204.246094 204.246094 217.671875 187.671875 217.671875 Z M 187.671875 217.671875 " fill-opacity="1" fill-rule="nonzero"/></g></svg>